Coordinates
version=1
nRows=7
nColumns=40
inDegrees=yes

Units are S.I. units (second, meters, Newtons, ...)
If the header above contains a line with 'inDegrees', this indicates whether rotational values are in degrees (yes) or radians (no).

endheader
time	pelvis_tilt	pelvis_list	pelvis_rotation	pelvis_tx	pelvis_ty	pelvis_tz	hip_flexion_r	hip_adduction_r	hip_rotation_r	knee_angle_r	knee_angle_r_beta	ankle_angle_r	subtalar_angle_r	mtp_angle_r	hip_flexion_l	hip_adduction_l	hip_rotation_l	knee_angle_l	knee_angle_l_beta	ankle_angle_l	subtalar_angle_l	mtp_angle_l	lumbar_extension	lumbar_bending	lumbar_rotation	arm_flex_r	arm_add_r	arm_rot_r	elbow_flex_r	pro_sup_r	wrist_flex_r	wrist_dev_r	arm_flex_l	arm_add_l	arm_rot_l	elbow_flex_l	pro_sup_l	wrist_flex_l	wrist_dev_l
      0.00000000	     -2.88212459	     14.73659562	     -8.93354556	     -0.24960339	      1.07056536	      0.26671217	     71.22319687	    -12.22556831	     25.33485484	    117.52681354	      2.05122986	     29.97125315	     -8.11744375	      0.00000000	     41.63807416	      1.46912074	    -20.05874146	     43.38378885	      0.75718996	      0.92080081	    -13.93028023	      0.00000000	    -52.54346047	    -16.15559439	     -4.74150586	     89.66527037	     -9.14550993	     45.14455210	     28.65725062	     88.96753512	      0.00000000	      0.00000000	     89.87557032	     -4.97747781	     33.43365028	     29.71846124	     88.96003810	      0.00000000	      0.00000000
      0.00833333	     -2.88423450	     14.37955295	     -8.97103012	     -0.24955853	      1.07028418	      0.26675257	     72.25700702	    -11.71994371	     25.20784184	    118.41185471	      2.06667674	     30.44503986	     -7.98310900	      0.00000000	     40.67725096	      1.36458471	    -19.99066781	     42.54565048	      0.74256168	      0.22284945	    -13.72048717	      0.00000000	    -52.50328131	    -15.94761316	     -4.42164804	     89.65543688	     -9.23645620	     45.20702895	     28.74123367	     88.97538826	      0.00000000	      0.00000000	     89.87567175	     -4.91095762	     33.37140021	     29.67161994	     88.95860411	      0.00000000	      0.00000000
      0.01666667	     -2.75592507	     14.06023683	     -8.90665285	     -0.24923778	      1.06979306	      0.26668221	     73.21523638	    -11.37516394	     25.11515246	    119.36117474	      2.08324550	     30.67185603	     -7.92149556	      0.00000000	     39.73856933	      1.31883314	    -19.89140513	     42.05104215	      0.73392914	     -0.14912122	    -13.60221117	      0.00000000	    -52.58041186	    -15.69399524	     -4.21245103	     89.64091590	     -9.31290364	     45.20749164	     28.77972984	     88.97718090	      0.00000000	      0.00000000	     89.87429334	     -4.85480988	     33.33361371	     29.68661822	     88.95906869	      0.00000000	      0.00000000
      0.02500000	     -2.81409183	     13.78164230	     -9.02002401	     -0.24952925	      1.06991498	      0.26678484	     74.28539317	    -10.83488559	     24.96869440	    119.86166213	      2.09198065	     31.13921860	     -7.56893463	      0.00000000	     38.85171801	      1.17563421	    -20.08854478	     41.08950675	      0.71714718	     -1.20061039	    -13.28737231	      0.00000000	    -52.54344626	    -15.60709542	     -3.86536965	     89.65240276	     -9.46226454	     45.28486792	     28.88553931	     88.98566650	      0.00000000	      0.00000000	     89.87481832	     -4.76395539	     33.24116959	     29.69981267	     88.95813962	      0.00000000	      0.00000000
      0.03333333	     -2.94104445	     13.96195889	     -9.50101306	     -0.25001078	      1.06948807	      0.26723893	     75.78806366	    -10.20304067	     25.37621164	    120.36428463	      2.10075307	     31.57522468	     -6.63655809	      0.00000000	     38.25778141	      1.02653406	    -21.15103868	     40.55899244	      0.70788796	     -2.24653500	    -12.96835124	      0.00000000	    -52.36438123	    -16.14778579	     -3.62967931	     89.65540776	     -9.62620651	     45.43088319	     29.05964251	     88.97639910	      0.00000000	      0.00000000	     89.87433434	     -4.65272119	     32.99562977	     29.71282671	     88.96445957	      0.00000000	      0.00000000
      0.04166667	     -2.96824802	     13.74422232	     -9.54792965	     -0.25035911	      1.06932948	      0.26715455	     76.95824467	     -9.84293519	     25.16279127	    120.76557863	      2.10775697	     31.66978804	     -6.56764159	      0.00000000	     37.58493213	      0.98992726	    -21.06240691	     40.22187046	      0.70200407	     -2.57218454	    -12.89510294	      0.00000000	    -52.35145048	    -16.04526181	     -3.40804566	     89.66507511	     -9.68750401	     45.32425476	     29.12857094	     88.97299175	      0.00000000	      0.00000000	     89.87513517	     -4.65378545	     32.98358801	     29.80703243	     88.96490412	      0.00000000	      0.00000000
      0.05000000	     -3.17629034	     13.57700899	     -9.68908546	     -0.25093762	      1.06914492	      0.26739238	     78.15087973	     -9.10745582	     25.04691528	    120.92234361	      2.11049304	     31.79204206	     -6.47784588	      0.00000000	     37.11839797	      0.84274089	    -21.15543109	     39.87830123	      0.69600766	     -3.35033919	    -12.79232362	      0.00000000	    -52.16950662	    -16.08594798	     -3.10065221	     89.66929200	     -9.77962762	     45.17110337	     29.25544168	     88.98350948	      0.00000000	      0.00000000	     89.87357230	     -4.63989776	     33.01013304	     29.92974702	     88.96340854	      0.00000000	      0.00000000
